<svg height="1024" width="1024" xmlns:dc="http://purl.org/dc/elements/1.1/" xmlns:cc="http://creativecommons.org/ns#" xmlns:rdf="http://www.w3.org/1999/02/22-rdf-syntax-ns#" xmlns:svg="http://www.w3.org/2000/svg" xmlns="http://www.w3.org/2000/svg" xmlns:sodipodi="http://sodipodi.sourceforge.net/DTD/sodipodi-0.dtd" xmlns:inkscape="http://www.inkscape.org/namespaces/inkscape" version="1.1" x="0px" y="0px" viewBox="0 0 100 100"><g transform="translate(0,-952.36218)"><path style="text-indent: 0px; text-transform: none; direction: ltr; baseline-shift: baseline; color: rgb(0, 0, 0); fill: rgb(255, 255, 255);" d="m 47.381869,967.36215 c -18.9948,0 -34.4062,15.75914 -34.4062,35.00005 0,19.2408 15.4114,35 34.4062,35 16.2581,0 29.8879,-11.5345 33.4688,-26.9376 a 4.0004,4.0004 0 1 0 -7.7812,-1.8125 c -2.7706,11.9169 -13.2109,20.7501 -25.6876,20.7501 -14.5863,0 -26.4062,-11.9993 -26.4062,-27 0,-15.00079 11.8199,-27.00005 26.4062,-27.00005 9.5625,0 17.9305,5.19335 22.5626,12.96875 l -0.4376,-0.21875 a 4.0004,4.0004 0 1 0 -3.625,7.125 l 9.7813,4.96875 a 4.0004,4.0004 0 0 0 5.3125,-1.59375 l 5.5,-9.8125 a 4.0004,4.0004 0 0 0 -3.875,-6 4.0004,4.0004 0 0 0 -3.125,2.09375 l -1.1875,2.09375 c -5.6026,-11.60009 -17.3462,-19.625 -30.9063,-19.625 z" fill="#dbdbdb" fill-opacity="1" stroke="none" marker="none" visibility="visible" display="inline" overflow="visible" class="active"></path></g></svg>